PathFileType	4	(X/Y/Z)	Run_500 02
DataRate	CameraRate	NumFrames	NumMarkers	Units	OrigDataRate	OrigDataStartFrame	OrigNumFrames
100	100	6	42	mm	100	129	128
Frame#	Time	LASI			RASI			LPSI			RPSI			RTH1			RTH2			RTH3			LTH1			LTH2			LTH3			RTB1			RTB2			RTB3			LTB1			LTB2			LTB3			RCAL			RTOE			RMT5			LCAL			LTOE			LMT5			LACR			RACR			CLAV			C7			RUA1			RUA2			RUA3			RLEL			RMEL			LUA1			LUA2			LUA3			LLEL			LMEL			RFAsuperior			RFAradius			RFAulna			LFAsuperior			LFAradius			LFAulna			
		X1	Y1	Z1	X2	Y2	Z2	X3	Y3	Z3	X4	Y4	Z4	X5	Y5	Z5	X6	Y6	Z6	X7	Y7	Z7	X8	Y8	Z8	X9	Y9	Z9	X10	Y10	Z10	X11	Y11	Z11	X12	Y12	Z12	X13	Y13	Z13	X14	Y14	Z14	X15	Y15	Z15	X16	Y16	Z16	X17	Y17	Z17	X18	Y18	Z18	X19	Y19	Z19	X20	Y20	Z20	X21	Y21	Z21	X22	Y22	Z22	X23	Y23	Z23	X24	Y24	Z24	X25	Y25	Z25	X26	Y26	Z26	X27	Y27	Z27	X28	Y28	Z28	X29	Y29	Z29	X30	Y30	Z30	X31	Y31	Z31	X32	Y32	Z32	X33	Y33	Z33	X34	Y34	Z34	X35	Y35	Z35	X36	Y36	Z36	X37	Y37	Z37	X38	Y38	Z38	X39	Y39	Z39	X40	Y40	Z40	X41	Y41	Z41	X42	Y42	Z42	

127	1.39	816.473962	963.55939	-462.424407	811.013867	978.5636009999999	-190.9745	645.983074	992.27209	-385.614934	647.588152	997.120539	-285.746674	702.027259	792.973841	-151.737999	778.276747	682.746388	-172.994633	699.038129	566.492407	-207.36435	786.1183600000001	767.18596	-485.582134	928.789183	700.404722	-485.326064	947.64648	586.367388	-469.943392	686.113692	330.874767	-296.604383	629.765719	290.167264	-239.017114	572.563887	202.161428	-307.005298	907.493563	422.533654	-398.434091	821.76511	436.03639	-470.499304	758.977324	379.7932	-412.23594	394.353607	135.987999	-319.415831	606.525535	60.577424	-321.795152	549.436	57.791146	-233.834397	594.9034360000001	441.900201	-414.977576	628.275828	214.861624	-399.711902	599.494087	258.225865	-488.372067	824.246677	1422.791981	-524.6112450000001	823.109605	1463.836652	-190.672554	867.842723	1381.812826	-320.864024	757.645127	1472.413843	-354.90805	775.39808	1400.313877	-95.29256599999999	704.122644	1327.005699	-106.43268	737.1365060000001	1288.665637	-48.038434	704.946387	1196.419294	6.317098	680.897432	1163.964042	-66.091904	758.067175	1346.105012	-596.7703770000001	682.366351	1289.410604	-556.697042	666.788933	1230.244322	-611.554051	639.6254719999999	1150.690257	-639.777628	617.771887	1149.670881	-564.909136	810.720501	1166.662904	3.456234	952.387331	1127.311384	-43.413425	927.902365	1066.188478	-15.157406	720.568294	1073.489142	-635.705975	820.0174500000001	959.497346	-563.109787	777.67732	926.945592	-612.164228	
128	1.4	818.410081	970.888237	-463.890836	816.3778170000001	978.866004	-190.895015	648.817966	999.815335	-384.460321	651.871815	1003.660138	-285.075357	694.9084350000001	795.261647	-153.630758	762.613619	683.131587	-174.68705	673.179619	571.902648	-208.540911	795.474336	778.684644	-489.370491	940.6542889999999	718.420043	-485.066995	965.132014	605.98696	-468.269575	646.34696	333.910131	-295.852591	589.665486	296.653381	-237.260207	529.905289	209.40735	-305.185385	940.151661	432.952554	-396.969399	850.365152	436.937346	-467.939619	797.149129	369.981264	-411.254819	351.55311	150.762892	-316.188526	557.145855	60.285741	-321.157122	500.804003	58.622176	-233.735627	623.786545	410.15429	-413.557948	691.947526	190.320981	-400.403421	655.136115	229.376063	-487.734405	820.119767	1429.989027	-526.630205	827.180311	1471.262431	-194.013308	869.1533030000001	1388.666134	-324.478407	757.203716	1478.074701	-355.763713	782.630489	1408.498491	-96.973984	711.970455	1334.815803	-104.368793	747.6137179999999	1296.850854	-47.107471	717.717118	1205.003109	8.943522	692.641752	1171.313382	-63.597267	749.466847	1358.188945	-597.108972	673.191764	1305.021964	-555.25677	653.086829	1246.413368	-610.488373	621.176106	1169.083572	-638.364271	602.0799479999999	1168.126323	-563.146656	824.499825	1179.510133	2.372157	965.323983	1145.290729	-49.125965	945.0608590000001	1083.639088	-19.088423	700.780819	1090.030767	-638.516185	800.833384	974.537771	-570.914307	754.694523	942.255483	-616.155855	
129	1.41	821.68957	979.989928	-464.332723	822.454548	979.165898	-191.119956	652.482761	1007.71506	-383.883617	656.4438709999999	1010.270638	-284.61401	689.54985	799.276863	-155.404186	747.856904	685.682831	-176.217365	648.717768	581.074699	-209.378844	805.344691	791.50769	-493.796925	951.808823	736.454959	-484.835149	979.669537	624.509784	-466.616902	608.630532	341.345193	-294.135055	551.717905	306.292741	-234.852051	490.373037	219.283192	-303.052306	969.898859	442.548722	-396.40867	877.295581	436.584819	-465.359702	835.586215	360.651427	-409.917362	313.111872	168.168159	-313.310464	508.394041	59.649059	-320.825828	453.77509	60.339735	-233.703048	656.603747	376.259364	-411.045259	758.653765	169.775583	-400.733077	714.275136	203.070005	-486.87707	816.3931219999999	1437.655922	-528.470744	831.009133	1478.846018	-197.384227	870.5373059999999	1395.921458	-328.001571	756.796354	1483.77424	-356.562577	789.267997	1417.216278	-98.489087	719.580794	1343.562094	-102.652901	757.171859	1305.766177	-46.441774	728.947209	1214.357059	11.025232	702.3925	1179.899536	-61.203942	742.2325080000001	1371.020548	-597.167319	665.825274	1320.953082	-554.229029	641.572961	1262.968295	-609.384245	604.815105	1187.894072	-636.040079	588.606093	1187.082107	-560.4300500000001	836.200731	1192.660246	1.009199	975.833092	1162.946766	-55.078231	959.5779240000001	1100.784154	-23.618643	683.261216	1107.757421	-640.034555	783.842796	990.891583	-576.941612	734.621878	959.0079449999999	-618.842614	
130	1.42	826.015167	990.29864	-463.654673	828.562863	980.027462	-192.398673	657.140765	1015.718085	-383.873287	661.144749	1016.750602	-284.454478	686.562962	805.408349	-156.954083	735.232884	690.417045	-177.65894	627.3122540000001	593.8048209999999	-209.329338	815.487797	805.264705	-497.978892	961.921024	754.104784	-484.724359	990.673737	641.364271	-464.644027	574.197556	353.045984	-291.404161	516.693322	319.635408	-231.633905	455.412856	231.931402	-300.212918	996.948766	450.611353	-396.729216	903.260389	433.94357	-462.996392	874.339779	351.50949	-408.430339	279.712369	188.282304	-311.127805	460.511856	58.870375	-320.304692	408.339957	63.762295	-233.528332	693.665003	341.199499	-407.68046	827.329777	154.254186	-400.537643	776.148381	179.789328	-485.915132	813.600633	1445.258626	-530.055864	834.483086	1486.163589	-200.740267	871.9214480000001	1403.1639	-331.355021	756.600004	1489.316217	-357.361086	795.247605	1425.925514	-100.130448	726.559854	1352.997799	-101.276203	765.684494	1314.914427	-46.191816	738.639047	1223.994333	12.72816	710.19167	1188.963093	-58.813082	736.7452039999999	1383.989503	-597.163896	660.651271	1336.734591	-553.26529	632.003828	1279.646983	-608.119599	590.679448	1206.46507	-632.899193	577.39975	1205.843745	-556.951734	845.9758869999999	1205.486297	-0.503737	984.110264	1179.540813	-61.020305	971.585413	1116.89254	-28.46835	667.7928920000001	1125.710904	-640.449701	769.293039	1007.4745	-581.44805	717.6592879999999	976.263163	-620.572253	
131	1.43	830.8583599999999	1000.755118	-462.197685	834.242603	981.845037	-194.735339	662.647528	1023.6436	-384.260137	665.806629	1022.986001	-284.626732	685.153982	813.364945	-157.738704	724.799261	696.806556	-178.666532	609.4558929999999	609.0428920000001	-208.494127	825.16633	819.532191	-501.149534	970.21393	770.128824	-484.597445	997.966773	655.7647040000001	-462.52422	544.373963	368.048582	-287.952216	485.349706	336.558694	-227.79755	425.885455	246.858453	-296.290037	1021.432569	456.878348	-397.672956	929.072753	428.585509	-461.336492	913.071793	342.399378	-407.284019	252.174818	211.284578	-309.526285	414.628098	58.975096	-318.833187	364.683137	69.92694299999999	-233.07725	734.775276	305.898421	-403.868004	896.565779	143.594122	-400.005688	839.716038	159.564896	-484.806462	811.911214	1452.377917	-531.360122	837.547827	1492.925036	-204.002743	873.335707	1410.037492	-334.503643	756.77799	1494.565291	-358.174647	800.58885	1434.107459	-102.318303	732.736047	1362.448275	-100.531333	773.0085309999999	1323.838864	-46.471285	746.896827	1233.398346	14.01283	716.604387	1197.78543	-56.633094	733.022604	1396.379529	-597.320746	657.685941	1351.62343	-552.1701890000001	624.183663	1296.032293	-606.575279	578.7562370000001	1224.375272	-629.135655	568.4196009999999	1223.906942	-552.915498	854.0409529999999	1217.366723	-2.093132	990.5088019999999	1194.502566	-66.67941	981.308016	1131.445839	-33.336554	654.0628400000001	1143.062738	-639.797674	757.310581	1023.462102	-584.873831	703.730851	993.092457	-621.716132	
132	1.44	835.797249	1010.368425	-460.422398	839.258347	984.602835	-197.240367	668.48098	1031.276665	-384.780752	670.272519	1028.948722	-285.052989	683.711729	822.408912	-157.311188	715.867081	704.076647	-178.713153	594.952481	625.03935	-207.37038	833.294355	833.585025	-502.719925	975.970805	782.976468	-484.283837	1002.345704	666.94648	-461.24967	520.269216	384.543638	-284.51069	458.539236	355.760138	-223.889838	401.690932	262.891831	-291.235549	1042.981052	461.185851	-398.930813	955.058441	420.614424	-461.096622	950.964485	333.294274	-406.965973	231.615527	236.977734	-308.019621	372.005903	61.750467	-316.319378	322.858137	79.68014599999999	-232.692216	779.27153	270.949558	-400.358565	964.84212	136.831884	-399.33686	904.14696	142.492708	-483.313161	811.101153	1458.792426	-532.454851	840.2319649999999	1499.020581	-207.041426	874.88588	1416.296257	-337.398389	757.387159	1499.353611	-358.957467	805.291076	1441.425884	-105.008845	737.996219	1370.971396	-100.65213	778.996887	1332.144735	-47.210868	753.849879	1241.992481	14.620595	722.141168	1205.82719	-55.000615	730.737015	1407.50167	-597.780555	656.444748	1364.771769	-550.8683559999999	618.029198	1311.433536	-604.626003	569.01251	1241.209838	-625.048748	561.648323	1240.692268	-548.590117	860.579706	1227.775585	-3.66806	995.415265	1207.474726	-71.831092	989.043779	1144.109419	-37.976628	642.080161	1159.131906	-638.240962	747.822117	1038.240309	-587.579788	692.694102	1008.660114	-622.653249	
